HIERARCHY
ROOT mixamorig:Hips
{
	OFFSET -0.000008 104.274872 1.554316
	CHANNELS 6 Xposition Yposition Zposition Xrotation Yrotation Zrotation
	JOINT mixamorig:Spine
	{
		OFFSET -0.000005 10.181595 0.131519
		CHANNELS 6 Xposition Yposition Zposition Xrotation Yrotation Zrotation
		JOINT mixamorig:Spine1
		{
			OFFSET -0.000000 9.893959 -1.470707
			CHANNELS 6 Xposition Yposition Zposition Xrotation Yrotation Zrotation
			JOINT mixamorig:Spine2
			{
				OFFSET -0.000000 9.220757 -1.370641
				CHANNELS 6 Xposition Yposition Zposition Xrotation Yrotation Zrotation
				JOINT mixamorig:Neck
				{
					OFFSET 0.000001 16.740417 -2.049036
					CHANNELS 6 Xposition Yposition Zposition Xrotation Yrotation Zrotation
					JOINT mixamorig:Head
					{
						OFFSET 0.000000 9.617874 1.685006
						CHANNELS 6 Xposition Yposition Zposition Xrotation Yrotation Zrotation
						JOINT mixamorig:HeadTop_End
						{
							OFFSET 0.000002 22.037354 7.501101
							CHANNELS 6 Xposition Yposition Zposition Xrotation Yrotation Zrotation
							End Site
							{
								OFFSET 0.000168 2310.654297 -282.823242
							}
						}
					}
				}
				JOINT mixamorig:RightShoulder
				{
					OFFSET -4.569970 11.014908 -2.160885
					CHANNELS 6 Xposition Yposition Zposition Xrotation Yrotation Zrotation
					JOINT mixamorig:RightArm
					{
						OFFSET -10.592851 -0.524811 -2.232101
						CHANNELS 6 Xposition Yposition Zposition Xrotation Yrotation Zrotation
						JOINT mixamorig:RightForeArm
						{
							OFFSET -27.841511 0.000031 -0.000004
							CHANNELS 6 Xposition Yposition Zposition Xrotation Yrotation Zrotation
							JOINT mixamorig:RightHand
							{
								OFFSET -28.328831 -0.000015 0.000015
								CHANNELS 6 Xposition Yposition Zposition Xrotation Yrotation Zrotation
								JOINT mixamorig:RightHandThumb1
								{
									OFFSET -2.464806 -1.573990 2.681852
									CHANNELS 6 Xposition Yposition Zposition Xrotation Yrotation Zrotation
									JOINT mixamorig:RightHandThumb2
									{
										OFFSET -3.215179 -1.872803 1.924282
										CHANNELS 6 Xposition Yposition Zposition Xrotation Yrotation Zrotation
										JOINT mixamorig:RightHandThumb3
										{
											OFFSET -2.654831 -1.527969 1.512609
											CHANNELS 6 Xposition Yposition Zposition Xrotation Yrotation Zrotation
											JOINT mixamorig:RightHandThumb4
											{
												OFFSET -2.018814 -1.152008 1.108052
												CHANNELS 6 Xposition Yposition Zposition Xrotation Yrotation Zrotation
												End Site
												{
													OFFSET -188.809540 -114.533607 132.431396
												}
											}
										}
									}
								}
								JOINT mixamorig:RightHandIndex1
								{
									OFFSET -9.108284 -0.517868 2.259835
									CHANNELS 6 Xposition Yposition Zposition Xrotation Yrotation Zrotation
									JOINT mixamorig:RightHandIndex2
									{
										OFFSET -3.699989 0.000000 0.001215
										CHANNELS 6 Xposition Yposition Zposition Xrotation Yrotation Zrotation
										JOINT mixamorig:RightHandIndex3
										{
											OFFSET -2.850006 0.000031 -0.000522
											CHANNELS 6 Xposition Yposition Zposition Xrotation Yrotation Zrotation
											JOINT mixamorig:RightHandIndex4
											{
												OFFSET -2.772186 -0.000015 -0.000020
												CHANNELS 6 Xposition Yposition Zposition Xrotation Yrotation Zrotation
												End Site
												{
													OFFSET -277.218445 0.000000 -0.050231
												}
											}
										}
									}
								}
								JOINT mixamorig:RightHandMiddle1
								{
									OFFSET -9.532516 -0.000031 -0.000023
									CHANNELS 6 Xposition Yposition Zposition Xrotation Yrotation Zrotation
									JOINT mixamorig:RightHandMiddle2
									{
										OFFSET -3.700005 -0.000015 0.003713
										CHANNELS 6 Xposition Yposition Zposition Xrotation Yrotation Zrotation
										JOINT mixamorig:RightHandMiddle3
										{
											OFFSET -2.949974 0.000015 -0.002054
											CHANNELS 6 Xposition Yposition Zposition Xrotation Yrotation Zrotation
											JOINT mixamorig:RightHandMiddle4
											{
												OFFSET -2.946640 0.000000 -0.000156
												CHANNELS 6 Xposition Yposition Zposition Xrotation Yrotation Zrotation
												End Site
												{
													OFFSET -294.664337 0.000000 -0.113670
												}
											}
										}
									}
								}
								JOINT mixamorig:RightHandRing1
								{
									OFFSET -9.103600 -0.043076 -1.865134
									CHANNELS 6 Xposition Yposition Zposition Xrotation Yrotation Zrotation
									JOINT mixamorig:RightHandRing2
									{
										OFFSET -3.379288 0.000000 -0.001055
										CHANNELS 6 Xposition Yposition Zposition Xrotation Yrotation Zrotation
										JOINT mixamorig:RightHandRing3
										{
											OFFSET -2.889687 -0.000015 0.000379
											CHANNELS 6 Xposition Yposition Zposition Xrotation Yrotation Zrotation
											JOINT mixamorig:RightHandRing4
											{
												OFFSET -2.638809 -0.000015 0.000941
												CHANNELS 6 Xposition Yposition Zposition Xrotation Yrotation Zrotation
												End Site
												{
													OFFSET -263.880371 0.000000 0.516020
												}
											}
										}
									}
								}
								JOINT mixamorig:RightHandPinky1
								{
									OFFSET -8.076683 -0.486710 -3.806280
									CHANNELS 6 Xposition Yposition Zposition Xrotation Yrotation Zrotation
									JOINT mixamorig:RightHandPinky2
									{
										OFFSET -3.600014 -0.000015 -0.003747
										CHANNELS 6 Xposition Yposition Zposition Xrotation Yrotation Zrotation
										JOINT mixamorig:RightHandPinky3
										{
											OFFSET -2.099983 0.000000 -0.005739
											CHANNELS 6 Xposition Yposition Zposition Xrotation Yrotation Zrotation
											JOINT mixamorig:RightHandPinky4
											{
												OFFSET -2.115768 -0.000031 -0.003680
												CHANNELS 6 Xposition Yposition Zposition Xrotation Yrotation Zrotation
												End Site
												{
													OFFSET -211.577087 0.000000 -0.350686
												}
											}
										}
									}
								}
							}
						}
					}
				}
				JOINT mixamorig:LeftShoulder
				{
					OFFSET 4.570447 11.014725 -2.160855
					CHANNELS 6 Xposition Yposition Zposition Xrotation Yrotation Zrotation
					JOINT mixamorig:LeftArm
					{
						OFFSET 10.592371 -0.524597 -2.232119
						CHANNELS 6 Xposition Yposition Zposition Xrotation Yrotation Zrotation
						JOINT mixamorig:LeftForeArm
						{
							OFFSET 27.841532 -0.000031 0.000026
							CHANNELS 6 Xposition Yposition Zposition Xrotation Yrotation Zrotation
							JOINT mixamorig:LeftHand
							{
								OFFSET 28.328846 -0.000061 0.000022
								CHANNELS 6 Xposition Yposition Zposition Xrotation Yrotation Zrotation
								JOINT mixamorig:LeftHandThumb1
								{
									OFFSET 2.466141 -1.576172 2.681732
									CHANNELS 6 Xposition Yposition Zposition Xrotation Yrotation Zrotation
									JOINT mixamorig:LeftHandThumb2
									{
										OFFSET 3.217812 -1.872070 1.916482
										CHANNELS 6 Xposition Yposition Zposition Xrotation Yrotation Zrotation
										JOINT mixamorig:LeftHandThumb3
										{
											OFFSET 2.656029 -1.528778 1.514513
											CHANNELS 6 Xposition Yposition Zposition Xrotation Yrotation Zrotation
											JOINT mixamorig:LeftHandThumb4
											{
												OFFSET 2.020889 -1.154053 1.115139
												CHANNELS 6 Xposition Yposition Zposition Xrotation Yrotation Zrotation
												End Site
												{
													OFFSET 190.885437 -115.081749 130.048782
												}
											}
										}
									}
								}
								JOINT mixamorig:LeftHandIndex1
								{
									OFFSET 9.109314 -0.518021 2.259871
									CHANNELS 6 Xposition Yposition Zposition Xrotation Yrotation Zrotation
									JOINT mixamorig:LeftHandIndex2
									{
										OFFSET 3.699989 0.000000 -0.000322
										CHANNELS 6 Xposition Yposition Zposition Xrotation Yrotation Zrotation
										JOINT mixamorig:LeftHandIndex3
										{
											OFFSET 2.850006 0.000000 0.000352
											CHANNELS 6 Xposition Yposition Zposition Xrotation Yrotation Zrotation
											JOINT mixamorig:LeftHandIndex4
											{
												OFFSET 2.774864 -0.000031 -0.000027
												CHANNELS 6 Xposition Yposition Zposition Xrotation Yrotation Zrotation
												End Site
												{
													OFFSET 277.486267 0.000000 -0.009857
												}
											}
										}
									}
								}
								JOINT mixamorig:LeftHandMiddle1
								{
									OFFSET 9.533394 0.000061 0.000044
									CHANNELS 6 Xposition Yposition Zposition Xrotation Yrotation Zrotation
									JOINT mixamorig:LeftHandMiddle2
									{
										OFFSET 3.699989 -0.000015 -0.000231
										CHANNELS 6 Xposition Yposition Zposition Xrotation Yrotation Zrotation
										JOINT mixamorig:LeftHandMiddle3
										{
											OFFSET 2.949997 -0.000015 -0.000059
											CHANNELS 6 Xposition Yposition Zposition Xrotation Yrotation Zrotation
											JOINT mixamorig:LeftHandMiddle4
											{
												OFFSET 2.952896 0.000031 0.000063
												CHANNELS 6 Xposition Yposition Zposition Xrotation Yrotation Zrotation
												End Site
												{
													OFFSET 295.289337 0.000000 0.022810
												}
											}
										}
									}
								}
								JOINT mixamorig:LeftHandRing1
								{
									OFFSET 9.104523 -0.042999 -1.865074
									CHANNELS 6 Xposition Yposition Zposition Xrotation Yrotation Zrotation
									JOINT mixamorig:LeftHandRing2
									{
										OFFSET 3.150009 -0.000031 0.000043
										CHANNELS 6 Xposition Yposition Zposition Xrotation Yrotation Zrotation
										JOINT mixamorig:LeftHandRing3
										{
											OFFSET 2.949982 -0.000015 0.000040
											CHANNELS 6 Xposition Yposition Zposition Xrotation Yrotation Zrotation
											JOINT mixamorig:LeftHandRing4
											{
												OFFSET 2.644348 0.000000 0.000057
												CHANNELS 6 Xposition Yposition Zposition Xrotation Yrotation Zrotation
												End Site
												{
													OFFSET 264.434631 0.000000 0.012105
												}
											}
										}
									}
								}
								JOINT mixamorig:LeftHandPinky1
								{
									OFFSET 8.077789 -0.486847 -3.806259
									CHANNELS 6 Xposition Yposition Zposition Xrotation Yrotation Zrotation
									JOINT mixamorig:LeftHandPinky2
									{
										OFFSET 3.599953 0.000031 0.014727
										CHANNELS 6 Xposition Yposition Zposition Xrotation Yrotation Zrotation
										JOINT mixamorig:LeftHandPinky3
										{
											OFFSET 2.100021 0.000015 0.007705
											CHANNELS 6 Xposition Yposition Zposition Xrotation Yrotation Zrotation
											JOINT mixamorig:LeftHandPinky4
											{
												OFFSET 2.125504 0.000031 0.007517
												CHANNELS 6 Xposition Yposition Zposition Xrotation Yrotation Zrotation
												End Site
												{
													OFFSET 212.550781 0.000000 0.625752
												}
											}
										}
									}
								}
							}
						}
					}
				}
			}
		}
	}
	JOINT mixamorig:RightUpLeg
	{
		OFFSET -8.207787 -6.751648 -1.599560
		CHANNELS 6 Xposition Yposition Zposition Xrotation Yrotation Zrotation
		JOINT mixamorig:RightLeg
		{
			OFFSET -0.000002 -44.370117 0.345942
			CHANNELS 6 Xposition Yposition Zposition Xrotation Yrotation Zrotation
			JOINT mixamorig:RightFoot
			{
				OFFSET 0.000003 -44.423679 -3.043532
				CHANNELS 6 Xposition Yposition Zposition Xrotation Yrotation Zrotation
				JOINT mixamorig:RightToeBase
				{
					OFFSET -0.000002 -8.728671 10.710558
					CHANNELS 6 Xposition Yposition Zposition Xrotation Yrotation Zrotation
					JOINT mixamorig:RightToe_End
					{
						OFFSET -0.000001 -0.000679 9.278119
						CHANNELS 6 Xposition Yposition Zposition Xrotation Yrotation Zrotation
						End Site
						{
							OFFSET 0.000000 -0.067690 927.812134
						}
					}
				}
			}
		}
	}
	JOINT mixamorig:LeftUpLeg
	{
		OFFSET 8.207793 -6.751686 -1.599556
		CHANNELS 6 Xposition Yposition Zposition Xrotation Yrotation Zrotation
		JOINT mixamorig:LeftLeg
		{
			OFFSET -0.000004 -44.370014 0.346954
			CHANNELS 6 Xposition Yposition Zposition Xrotation Yrotation Zrotation
			JOINT mixamorig:LeftFoot
			{
				OFFSET -0.000001 -44.423672 -3.044401
				CHANNELS 6 Xposition Yposition Zposition Xrotation Yrotation Zrotation
				JOINT mixamorig:LeftToeBase
				{
					OFFSET -0.000002 -8.728669 10.710558
					CHANNELS 6 Xposition Yposition Zposition Xrotation Yrotation Zrotation
					JOINT mixamorig:LeftToe_End
					{
						OFFSET -0.000003 -0.000679 9.278133
						CHANNELS 6 Xposition Yposition Zposition Xrotation Yrotation Zrotation
						End Site
						{
							OFFSET 0.000000 -0.068021 927.813477
						}
					}
				}
			}
		}
	}
}
MOTION
Frames: 3
Frame Time: 0.033333
0.000006 104.270477 1.554256 0.000010 0.000003 -0.000113 -0.000005 10.181587 0.131522 0.000001 -0.000003 0.000084 -0.000000 9.893967 -1.470711 0.000001 0.000000 -0.000000 -0.000000 9.220802 -1.370642 0.000000 -0.000000 -0.000000 0.000001 16.740433 -2.049030 0.000000 -0.000000 -0.000000 0.000000 9.617859 1.685014 0.000000 0.000000 0.000000 0.000002 22.037384 7.501101 0.000000 -0.000000 0.000000 -4.569968 11.014880 -2.160881 0.000008 0.000001 -0.000038 -10.592865 -0.524675 -2.232036 70.947627 6.593276 -4.700958 -27.841553 0.000016 0.000563 119.004367 58.128168 -86.675497 -28.328817 0.000021 0.000025 -0.000318 -0.000046 0.000006 -2.464465 -1.573943 2.682410 -27.239173 -156.931410 34.623178 -3.215272 -1.872637 1.924693 163.829054 29.288042 -11.131464 -2.654943 -1.527919 1.513148 148.834931 24.219965 -56.940135 -2.018816 -1.152000 1.108056 -0.000005 -0.000004 0.000007 -9.108401 -0.517570 2.260108 91.487782 18.145758 -18.663593 -3.700070 0.000314 0.001482 88.852148 14.635540 -14.324850 -2.850074 0.000371 -0.000287 88.395004 10.980655 -10.678161 -2.772154 0.000004 -0.000016 0.000004 0.000002 -0.000001 -9.532595 0.000272 0.000196 85.122858 14.751373 -13.687479 -3.700066 0.000324 0.003932 88.156350 10.597339 -10.173393 -2.950058 0.000345 -0.001820 88.559044 10.156619 -9.898809 -2.946628 0.000001 -0.000162 0.000003 -0.000001 0.000001 -9.103697 -0.042742 -1.864905 84.667066 15.319160 -13.929734 -3.379318 0.000304 -0.000853 87.854449 8.808029 -8.501974 -2.889747 0.000354 0.000603 88.290625 5.719758 -5.595323 -2.638805 -0.000017 0.000942 -0.000001 0.000003 0.000001 -8.076746 -0.486384 -3.806046 79.827262 15.160715 -12.579920 -3.600024 0.000279 -0.003536 83.368442 7.764818 -6.602633 -2.100006 0.000314 -0.005543 81.784125 4.324628 -3.558916 -2.115770 -0.000026 -0.003688 -0.000000 -0.000004 -0.000002 4.570446 11.014691 -2.160851 -0.000018 0.000010 -0.000021 10.592366 -0.524515 -2.232299 71.173638 1.922327 -1.375568 27.841831 0.000108 -0.000189 104.330935 -63.557321 77.157164 28.328829 -0.000029 0.000031 0.000019 -0.000089 0.000001 2.466083 -1.576174 2.681907 -25.393501 155.065115 -36.359054 3.217765 -1.871700 1.916379 155.077041 -33.424647 -14.301581 2.656112 -1.528626 1.514458 144.902695 -26.887847 41.187069 2.020902 -1.154090 1.115147 0.000003 -0.000001 0.000004 9.109382 -0.517847 2.259737 86.192951 -15.666856 14.658766 3.700050 0.000145 -0.000468 82.242280 -15.804211 13.833238 2.850068 0.000170 0.000193 79.748879 -13.146768 10.995896 2.774887 -0.000019 -0.000028 0.000003 0.000001 0.000000 9.533470 0.000224 -0.000097 86.607543 -14.448961 13.617626 3.700063 0.000193 -0.000373 87.856109 -13.765195 13.261500 2.950065 0.000177 -0.000200 88.978712 -16.059513 15.782371 2.952863 -0.000012 0.000061 -0.000001 0.000001 0.000001 9.104572 -0.042848 -1.865219 85.554922 -13.578138 12.573787 3.150048 0.000208 -0.000091 89.655126 -12.493522 12.420941 2.950021 0.000183 -0.000069 90.707617 -13.739492 13.910397 2.644321 0.000032 0.000064 -0.000001 0.000001 -0.000001 8.077846 -0.486719 -3.806416 78.496133 -15.127896 12.859925 3.599978 0.000178 0.014565 80.817605 -13.327279 11.795938 2.100022 0.000190 0.007542 83.107351 -12.288735 11.331543 2.125490 -0.000019 0.007511 0.000001 0.000000 -0.000001 -8.207786 -6.751667 -1.599560 -0.077001 -0.000003 0.000080 -0.000002 -44.370110 0.345938 0.153719 -0.000000 -0.000000 0.000000 -44.423679 -3.043532 -0.076700 0.000000 -0.000002 -0.000006 -8.728667 10.710559 -0.000009 -0.000000 -0.000000 -0.000001 -0.000679 9.278123 0.000000 -0.000000 -0.000000 8.207792 -6.751710 -1.599556 -0.074518 -0.000003 0.000081 -0.000002 -44.370014 0.346960 0.148822 0.000002 0.000000 -0.000001 -44.423664 -3.044403 -0.074314 0.000000 -0.000002 -0.000004 -8.728671 10.710558 0.000007 -0.000000 -0.000000 0.000000 -0.000680 9.278137 -0.000000 0.000000 -0.000001 
0.000006 104.270477 1.554256 0.000010 0.000003 -0.000113 -0.000005 10.181587 0.131522 0.000001 -0.000003 0.000084 -0.000000 9.893967 -1.470711 0.000001 0.000000 -0.000000 -0.000000 9.220802 -1.370642 0.000000 -0.000000 -0.000000 0.000001 16.740433 -2.049030 0.000000 -0.000000 -0.000000 0.000000 9.617859 1.685014 0.000000 0.000000 0.000000 0.000002 22.037384 7.501101 0.000000 -0.000000 0.000000 -4.569968 11.014880 -2.160881 0.000008 0.000001 -0.000038 -10.592862 -0.524664 -2.232034 71.008771 4.798984 -3.424629 -27.841541 0.000019 0.000532 118.943318 59.123627 -87.770356 -28.328814 0.000006 0.000020 -0.000315 -0.000046 0.000004 -2.464453 -1.573931 2.682393 -29.307215 -156.077226 29.876395 -3.215274 -1.872617 1.924664 160.923164 31.218025 -1.870579 -2.654915 -1.527897 1.513124 146.731902 25.473821 -52.555881 -2.018842 -1.152012 1.108057 -0.000001 -0.000003 0.000002 -9.108387 -0.517562 2.260093 90.267042 18.103949 -18.234798 -3.700084 0.000293 0.001479 89.722676 15.092119 -14.996179 -2.850068 0.000343 -0.000281 89.269876 11.080108 -10.939748 -2.772170 -0.000013 -0.000015 0.000001 -0.000003 -0.000000 -9.532582 0.000264 0.000187 83.967737 14.831133 -13.487736 -3.700072 0.000327 0.003934 85.962001 10.429840 -9.636403 -2.950062 0.000319 -0.001837 87.657644 9.954378 -9.550724 -2.946609 0.000015 -0.000166 -0.000003 -0.000002 0.000000 -9.103706 -0.042758 -1.864917 82.443819 15.930856 -13.939125 -3.379328 0.000330 -0.000841 87.079386 8.663217 -8.250307 -2.889746 0.000349 0.000619 90.846625 5.497519 -5.624514 -2.638817 -0.000001 0.000939 -0.000001 0.000002 0.000000 -8.076745 -0.486378 -3.806074 79.383156 15.635650 -12.877674 -3.600019 0.000278 -0.003536 84.318378 7.735634 -6.687172 -2.100008 0.000317 -0.005506 87.685873 4.625777 -4.235158 -2.115767 -0.000054 -0.003678 0.000003 0.000002 -0.000004 4.570446 11.014691 -2.160851 -0.000018 0.000010 -0.000021 10.592357 -0.524544 -2.232280 70.970317 14.335491 -10.246003 27.841835 0.000102 -0.000213 103.463221 -63.165794 75.862016 28.328808 -0.000042 0.000016 0.000020 -0.000091 0.000001 2.466213 -1.576119 2.681866 -3.883154 161.811184 -78.980933 3.217818 -1.871754 1.916388 166.985093 -28.602688 13.844042 2.656113 -1.528659 1.514480 146.044607 -25.126237 56.703810 2.020876 -1.154059 1.115139 0.000002 0.000005 0.000002 9.109388 -0.517858 2.259744 86.141608 -19.042764 17.810365 3.700049 0.000151 -0.000469 84.306951 -14.002403 12.702792 2.850049 0.000177 0.000193 82.724724 -10.602001 9.339414 2.774878 -0.000030 -0.000031 -0.000001 -0.000005 0.000001 9.533474 0.000199 -0.000088 86.990642 -18.125937 17.203727 3.700037 0.000184 -0.000378 89.238969 -11.732786 11.576409 2.950045 0.000191 -0.000207 89.151297 -10.992397 10.834570 2.952872 -0.000046 0.000073 0.000001 -0.000000 0.000001 9.104593 -0.042844 -1.865218 87.530438 -17.400870 16.679006 3.150043 0.000210 -0.000097 90.776643 -11.830435 11.992570 2.950014 0.000202 -0.000092 91.604913 -9.741065 10.018198 2.644326 0.000027 0.000048 -0.000000 -0.000001 -0.000000 8.077850 -0.486712 -3.806379 82.442897 -19.543997 17.692635 3.600008 0.000191 0.014579 82.739867 -15.635877 14.251040 2.100040 0.000173 0.007542 84.537231 -10.766057 10.223164 2.125526 -0.000032 0.007517 -0.000001 -0.000002 0.000000 -8.207786 -6.751667 -1.599560 -0.077001 -0.000003 0.000080 -0.000002 -44.370110 0.345938 0.153719 -0.000000 -0.000000 0.000000 -44.423679 -3.043532 -0.076700 0.000000 -0.000002 -0.000006 -8.728667 10.710559 -0.000009 -0.000000 -0.000000 -0.000001 -0.000679 9.278123 0.000000 -0.000000 -0.000000 8.207792 -6.751710 -1.599556 -0.074518 -0.000003 0.000081 -0.000002 -44.370014 0.346960 0.148822 0.000002 0.000000 -0.000001 -44.423664 -3.044403 -0.074314 0.000000 -0.000002 -0.000004 -8.728671 10.710558 0.000007 -0.000000 -0.000000 0.000000 -0.000680 9.278137 -0.000000 0.000000 -0.000001 
0.000006 104.270477 1.554256 0.000010 0.000003 -0.000113 -0.000005 10.181587 0.131522 0.000001 -0.000003 0.000084 -0.000000 9.893967 -1.470711 0.000001 0.000000 -0.000000 -0.000000 9.220802 -1.370642 0.000000 -0.000000 -0.000000 0.000001 16.740433 -2.049030 0.000000 -0.000000 -0.000000 0.000000 9.617859 1.685014 0.000000 0.000000 0.000000 0.000002 22.037384 7.501101 0.000000 -0.000000 0.000000 -4.569968 11.014880 -2.160881 0.000008 0.000001 -0.000038 -10.592870 -0.524678 -2.232026 70.772357 7.672789 -5.454032 -27.841530 0.000007 0.000558 120.274099 62.715733 -93.409817 -28.328840 0.000006 0.000022 -0.000316 -0.000044 0.000006 -2.464456 -1.573916 2.682391 -28.824809 -155.608170 30.522661 -3.215295 -1.872617 1.924683 161.060123 31.120131 -2.386541 -2.654939 -1.527898 1.513116 146.211373 25.642736 -52.611721 -2.018826 -1.151999 1.108065 -0.000008 -0.000006 0.000002 -9.108396 -0.517559 2.260081 89.417128 17.918781 -17.787240 -3.700078 0.000307 0.001488 89.741774 14.861464 -14.771531 -2.850091 0.000362 -0.000290 89.467453 10.948395 -10.846799 -2.772166 0.000002 -0.000018 0.000004 -0.000001 0.000001 -9.532602 0.000265 0.000189 83.794919 14.485124 -13.135384 -3.700048 0.000337 0.003931 86.157850 10.247335 -9.498677 -2.950072 0.000340 -0.001840 87.959046 9.911973 -9.559951 -2.946627 -0.000000 -0.000151 -0.000003 0.000004 0.000001 -9.103702 -0.042757 -1.864922 82.353012 15.748145 -13.756611 -3.379329 0.000327 -0.000871 86.972275 8.321054 -7.910139 -2.889753 0.000362 0.000611 90.778234 5.280833 -5.398039 -2.638830 -0.000001 0.000942 -0.000001 0.000002 -0.000001 -8.076765 -0.486385 -3.806072 79.164590 15.389762 -12.624029 -3.600035 0.000275 -0.003532 84.114142 7.352330 -6.318863 -2.099997 0.000320 -0.005516 87.578441 4.332094 -3.946573 -2.115785 -0.000070 -0.003678 -0.000001 0.000001 -0.000003 4.570446 11.014691 -2.160851 -0.000018 0.000010 -0.000021 10.592354 -0.524552 -2.232258 69.133911 14.650337 -10.123013 27.841839 0.000103 -0.000214 103.611395 -64.813810 77.795923 28.328815 -0.000028 0.000023 0.000021 -0.000088 0.000000 2.466216 -1.576122 2.681864 -5.013860 161.289030 -76.791202 3.217821 -1.871760 1.916381 166.881520 -29.055768 12.130778 2.656106 -1.528687 1.514467 146.252150 -25.017100 57.006941 2.020894 -1.154084 1.115155 0.000001 0.000000 0.000004 9.109390 -0.517854 2.259750 86.375173 -19.104545 17.940286 3.700046 0.000155 -0.000454 84.049658 -14.009302 12.652294 2.850039 0.000195 0.000195 82.305187 -10.479460 9.163686 2.774888 -0.000048 -0.000027 0.000002 -0.000000 -0.000003 9.533474 0.000198 -0.000074 87.187365 -18.398675 17.522345 3.700054 0.000182 -0.000386 89.084306 -11.874957 11.685365 2.950037 0.000193 -0.000196 89.101730 -10.958906 10.792281 2.952874 -0.000030 0.000067 0.000000 -0.000002 -0.000000 9.104598 -0.042842 -1.865218 87.954846 -17.757862 17.146375 3.150052 0.000197 -0.000098 90.743646 -12.353813 12.515778 2.950022 0.000191 -0.000074 91.325128 -10.009116 10.243849 2.644319 0.000044 0.000063 -0.000000 0.000001 -0.000000 8.077843 -0.486736 -3.806398 83.326054 -19.780344 18.177614 3.600018 0.000195 0.014551 82.389143 -15.939409 14.432586 2.100050 0.000175 0.007557 83.646636 -10.891576 10.178730 2.125505 -0.000029 0.007517 0.000001 0.000001 -0.000001 -8.207786 -6.751667 -1.599560 -0.077001 -0.000003 0.000080 -0.000002 -44.370110 0.345938 0.153719 -0.000000 -0.000000 0.000000 -44.423679 -3.043532 -0.076700 0.000000 -0.000002 -0.000006 -8.728667 10.710559 -0.000009 -0.000000 -0.000000 -0.000001 -0.000679 9.278123 0.000000 -0.000000 -0.000000 8.207792 -6.751710 -1.599556 -0.074518 -0.000003 0.000081 -0.000002 -44.370014 0.346960 0.148822 0.000002 0.000000 -0.000001 -44.423664 -3.044403 -0.074314 0.000000 -0.000002 -0.000004 -8.728671 10.710558 0.000007 -0.000000 -0.000000 0.000000 -0.000680 9.278137 -0.000000 0.000000 -0.000001 
